# Blender 4.2.2 LTS
# www.blender.org
mtllib Battery.mtl
o Bat1
v 1.000000 0.026014 -0.536014
v 0.976014 0.026014 -0.560000
v 0.976014 0.050000 -0.536014
v 0.976014 -0.026014 -0.560000
v 1.000000 -0.026014 -0.536014
v 1.000000 0.026014 0.536014
v 0.976014 0.050000 0.536014
v 0.976014 0.026014 0.560000
v 1.000000 -0.026014 0.536014
v 0.976014 -0.026014 0.560000
v -0.861470 0.026014 -0.560000
v -0.885456 0.026014 -0.536014
v -0.861470 0.050000 -0.536014
v -0.885456 -0.026014 -0.536014
v -0.861470 -0.026014 -0.560000
v -0.885456 0.026014 0.536014
v -0.861470 0.026014 0.560000
v -0.861470 0.050000 0.536014
v -0.861470 -0.026014 0.560000
v -0.885456 -0.026014 0.536014
v -0.885456 -0.026014 -0.134003
v -0.885456 0.026014 -0.134003
v -0.885456 0.026014 0.134003
v -0.885456 -0.026014 0.134003
v -1.028584 -0.026014 -0.134003
v -1.028584 0.026014 -0.134003
v -1.028584 0.026014 0.134003
v -1.028584 -0.026014 0.134003
v -0.861470 0.050000 -0.111562
v -0.861470 0.050000 0.111562
v -1.003885 0.050013 -0.111562
v -1.003885 0.050013 0.111562
v -0.885456 0.026014 -0.134003
v -0.885456 0.026014 0.134003
vn -0.0000 -0.0000 -1.0000
vn -1.0000 -0.0000 -0.0000
vn -0.0000 -0.0000 1.0000
vn -0.0000 1.0000 -0.0000
vn 0.5773 0.5774 -0.5773
vn 0.5773 0.5774 0.5773
vn -0.5773 0.5773 -0.5774
vn -0.5773 0.5773 0.5774
vn 0.7071 0.7071 -0.0000
vn -0.0000 0.7071 -0.7071
vn -0.0000 0.7071 0.7071
vn 0.7071 -0.0000 0.7071
vn -0.7071 -0.0000 0.7071
vn -0.0000 -0.7069 0.7073
vn -0.5773 -0.5774 0.5774
vn -0.7073 -0.7069 -0.0000
vn -0.6727 -0.7069 -0.2186
vn -0.5774 -0.5774 -0.5773
vn -0.0000 -0.7069 -0.7073
vn 0.5773 -0.5774 -0.5774
vn 0.7073 -0.7069 -0.0000
vn 0.5774 -0.5774 0.5773
vn -0.7071 -0.0000 -0.7071
vn 0.7071 -0.0000 -0.7071
vn 1.0000 -0.0000 -0.0000
vn -0.0000 0.6831 0.7303
vn -0.7071 0.7071 -0.0000
vn 0.6727 -0.7069 -0.2186
vn 0.2186 -0.7069 0.6727
vn -0.6727 -0.7069 0.2186
vn -0.2186 -0.7069 -0.6727
vn 0.0001 1.0000 -0.0000
vn -0.6969 0.7172 -0.0000
vn 0.7071 -0.7071 -0.0000
vn 1.0000 0.0001 -0.0000
vn 0.9170 -0.0830 0.3902
vn 0.9905 -0.0094 0.1368
vn 0.9905 -0.0094 -0.1369
vn -0.0000 0.6831 -0.7303
vt 0.434966 0.252998
vt 0.565034 0.252998
vt 0.565034 0.497002
vt 0.434966 0.497002
vt 0.434966 0.005354
vt 0.565034 0.005354
vt 0.565034 0.065177
vt 0.434966 0.065177
vt 0.434966 0.752998
vt 0.565034 0.752998
vt 0.565034 0.997002
vt 0.434966 0.997002
vt 0.627998 0.505354
vt 0.872002 0.505354
vt 0.872002 0.595088
vt 0.872002 0.654911
vt 0.872002 0.744646
vt 0.627998 0.744646
vt 0.565034 0.500000
vt 0.625000 0.497002
vt 0.565034 0.744646
vt 0.625000 0.744646
vt 0.565034 0.750000
vt 0.565034 0.250000
vt 0.625000 0.252998
vt 0.565034 0.000000
vt 0.625000 0.005354
vt 0.565034 0.505354
vt 0.625000 0.752998
vt 0.625000 0.997002
vt 0.434966 0.744646
vt 0.434966 0.000000
vt 0.434966 0.142967
vt 0.434966 0.188839
vt 0.434966 0.250000
vt 0.434966 0.505354
vt 0.434966 0.244646
vt 0.565034 0.244646
vt 0.434966 0.184823
vt 0.565034 0.184823
vt 0.565034 0.125000
vt 0.625000 0.154911
vt 0.625000 0.244646
vt 0.434966 0.110044
vt 0.565034 0.110044
vt 0.434966 0.125000
vt 0.625000 0.095089
s 0
usemtl Material.007
f 15/1/1 11/2/1 2/3/1 4/4/1
f 20/5/2 16/6/2 23/7/2 24/8/2
f 10/9/3 8/10/3 17/11/3 19/12/3
f 3/13/4 13/14/4 29/15/4 30/16/4 18/17/4 7/18/4
f 1/19/5 2/3/5 3/20/5
f 6/21/6 7/22/6 8/23/6
f 11/2/7 12/24/7 13/25/7
f 16/6/8 17/26/8 18/27/8
f 3/13/9 7/18/9 6/21/9 1/28/9
f 2/3/10 11/2/10 13/25/10 3/20/10
f 7/29/11 18/30/11 17/11/11 8/10/11
f 8/10/12 10/9/12 9/31/12 6/21/12
f 16/6/13 20/5/13 19/32/13 17/26/13
f 10/9/14 19/32/15 20/5/16 24/33/17 21/34/17 14/35/18 15/1/19 4/4/20 5/36/21 9/31/22
f 11/2/23 15/1/23 14/37/23 12/38/23
f 1/28/24 5/36/24 4/4/24 2/3/24
f 5/36/25 1/28/25 6/21/25 9/31/25
f 27/7/26 23/7/26 30/7/26 32/7/26
f 21/39/2 22/40/2 33/40/2 12/38/2 14/37/2
f 12/38/27 33/41/27 29/42/27 13/43/27
f 28/44/2 27/45/2 26/41/2 25/46/2
f 24/8/3 23/7/3 27/7/3 28/8/3
f 22/40/1 21/39/1 25/39/1 26/40/1
f 21/34/28 24/33/29 28/33/30 25/34/31
f 30/7/32 29/41/32 31/41/32 32/7/32
f 26/41/33 27/45/33 32/45/33 31/41/33
f 23/7/34 34/7/35 22/41/36 29/41/37 30/7/38
f 22/40/39 26/40/39 31/40/39 29/40/39
f 29/42/27 33/41/27 22/41/27 34/7/27 30/47/27
f 30/47/27 34/7/27 23/7/27 16/6/27 18/27/27
