# Blender 4.2.2 LTS
# www.blender.org
mtllib LightSwitch.mtl
o Cube
v 0.006616 0.093862 -0.400000
v -0.029347 -0.099906 -0.400000
v 0.006616 0.093862 0.400000
v -0.029347 -0.099906 0.400000
v -0.708643 0.367595 -0.400000
v -0.778684 0.180260 -0.400000
v -0.708643 0.367595 0.400000
v -0.778684 0.180260 0.400000
v 0.772507 0.093315 -0.400000
v 0.770761 -0.106677 -0.400000
v 0.772507 0.093315 0.400000
v 0.770761 -0.106677 0.400000
v -0.029208 -0.099696 -0.400000
v -0.029208 -0.099696 0.400000
v -0.066253 -0.296674 -0.400000
v -0.066253 -0.296674 0.400000
v 0.769010 -0.307316 -0.400000
v 0.769010 -0.307316 0.400000
v -0.850884 -0.012846 -0.400000
v -0.850884 -0.012846 0.400000
vn 0.3574 0.9339 -0.0000
vn -0.0000 -0.0000 1.0000
vn -0.9367 0.3502 -0.0000
vn -0.0000 -0.0000 -1.0000
vn 0.9832 -0.1825 -0.0000
vn 0.0007 1.0000 -0.0000
vn -0.9833 0.1820 -0.0000
vn 1.0000 -0.0087 -0.0000
vn -0.0127 -0.9999 -0.0000
vn -0.9828 0.1848 -0.0000
vn -0.3402 -0.9404 -0.0000
vn 0.9829 -0.1843 -0.0000
vt 0.625000 0.500000
vt 0.875000 0.500000
vt 0.875000 0.750000
vt 0.625000 0.750000
vt 0.375000 0.750000
vt 0.625000 1.000000
vt 0.375000 1.000000
vt 0.375000 0.000000
vt 0.625000 0.000000
vt 0.625000 0.250000
vt 0.375000 0.250000
vt 0.375000 0.500000
vt 0.125000 0.500000
vt 0.125000 0.750000
s 0
usemtl Material
f 1/1/1 5/2/1 7/3/1 3/4/1
f 4/5/2 3/4/2 7/6/2 8/7/2
f 8/8/3 7/9/3 5/10/3 6/11/3
f 6/11/4 2/12/4 15/12/4 19/11/4
f 2/12/5 1/1/5 3/4/5 4/5/5
f 6/11/4 5/10/4 1/1/4 2/12/4
f 19/13/11 15/12/11 16/5/11 20/14/11
f 4/5/2 8/7/2 20/7/2 16/5/2
f 8/8/3 6/11/3 19/11/3 20/8/3
f 2/12/12 4/5/12 16/5/12 15/12/12
usemtl Material.002
f 9/1/6 1/2/6 3/3/6 11/4/6
f 12/5/2 11/4/2 3/6/2 14/7/2
f 14/8/7 3/9/7 1/10/7 13/11/7
f 12/5/2 14/7/2 16/7/2 18/5/2
f 10/12/8 9/1/8 11/4/8 12/5/8
f 13/11/4 1/10/4 9/1/4 10/12/4
f 15/13/9 17/12/9 18/5/9 16/14/9
f 13/11/4 10/12/4 17/12/4 15/11/4
f 10/12/8 12/5/8 18/5/8 17/12/8
f 14/8/10 13/11/10 15/11/10 16/8/10
o Cube.001
v 1.000000 0.050000 -0.560000
v 1.000000 -0.050000 -0.560000
v 1.000000 0.050000 0.560000
v 1.000000 -0.050000 0.560000
v -1.000000 0.050000 -0.560000
v -1.000000 -0.050000 -0.560000
v -1.000000 0.050000 0.560000
v -1.000000 -0.050000 0.560000
vn -0.0000 1.0000 -0.0000
vn -0.0000 -0.0000 1.0000
vn -1.0000 -0.0000 -0.0000
vn -0.0000 -1.0000 -0.0000
vn 1.0000 -0.0000 -0.0000
vn -0.0000 -0.0000 -1.0000
vt 0.625000 0.500000
vt 0.875000 0.500000
vt 0.875000 0.750000
vt 0.625000 0.750000
vt 0.375000 0.750000
vt 0.625000 1.000000
vt 0.375000 1.000000
vt 0.375000 0.000000
vt 0.625000 0.000000
vt 0.625000 0.250000
vt 0.375000 0.250000
vt 0.125000 0.500000
vt 0.375000 0.500000
vt 0.125000 0.750000
s 0
usemtl Material.001
f 21/15/13 25/16/13 27/17/13 23/18/13
f 24/19/14 23/18/14 27/20/14 28/21/14
f 28/22/15 27/23/15 25/24/15 26/25/15
f 26/26/16 22/27/16 24/19/16 28/28/16
f 22/27/17 21/15/17 23/18/17 24/19/17
f 26/25/18 25/24/18 21/15/18 22/27/18
